<svg width="117" height="45" viewBox="0 0 117 45" fill="none" xmlns="http://www.w3.org/2000/svg">
<path d="M84.062 8.52331C83.6405 8.14403 83.3999 7.6037 83.3999 7.03672V6.76165V3.61398L110.446 0H113.435C113.983 0 114.507 0.22504 114.885 0.622501L115.959 1.75265C116.312 2.12435 116.509 2.61746 116.509 3.13015V8.02589C116.509 9.13046 115.613 10.0259 114.509 10.0259H106.967C105.863 10.0259 104.967 10.9213 104.967 12.0259V42.9999C104.967 44.1045 104.072 44.9999 102.967 44.9999H98.0715C97.5588 44.9999 97.0657 44.803 96.694 44.4499L95.5638 43.3763C95.1664 42.9987 94.9413 42.4745 94.9413 41.9263V38.588V12.0259C94.9413 10.9213 94.0459 10.0259 92.9413 10.0259H86.499C86.0049 10.0259 85.5283 9.843 85.161 9.51248L84.062 8.52331Z" fill="#8B0000"/>
<path d="M100.636 42.1683H96.9413C96.1129 42.1683 95.4413 41.4968 95.4413 40.6683V34.974V9.69429C95.4413 8.31358 94.322 7.19429 92.9413 7.19429H85.3999C84.5715 7.19429 83.8999 6.52272 83.8999 5.69429V2C83.8999 1.17157 84.5715 0.5 85.3999 0.5H112.177C113.005 0.5 113.677 1.17157 113.677 2V5.69429C113.677 6.52272 113.005 7.19429 112.177 7.19429H104.636C103.255 7.19429 102.136 8.31358 102.136 9.69429V40.6683C102.136 41.4968 101.464 42.1683 100.636 42.1683Z" fill="#FFCC33" stroke="#8B0000"/>
<path d="M35.8218 3.52166C35.8722 2.78857 36.3206 2.14215 36.9895 1.83808L41.0331 0H45.7712C46.1779 0 46.575 0.124008 46.9094 0.355484L48.8081 1.66961C49.1788 1.92619 49.4519 2.30049 49.5832 2.7318L59.1409 34.1357C59.16 34.1984 59.1348 34.2662 59.0794 34.3014V34.3014C58.9659 34.3733 58.8238 34.2665 58.8613 34.1374L68.3603 1.44201C68.6085 0.587673 69.3912 0 70.2809 0H78.0311C78.598 0 79.1383 0.240596 79.5175 0.661952L80.507 1.76112C80.8375 2.12838 81.0205 2.60503 81.0205 3.09917V43C81.0205 44.1046 80.125 45 79.0205 45H74.2287C73.7235 45 73.2371 44.8089 72.8671 44.465L71.7492 43.426C71.3421 43.0476 71.1108 42.5168 71.1108 41.961V36.7227L73.4098 12.4715C73.4275 12.2853 73.281 12.1243 73.094 12.1243V12.1243C72.9548 12.1243 72.8319 12.2151 72.7908 12.3481L63.1525 43.5896C62.8938 44.4281 62.1189 45 61.2414 45H55.104C54.5687 45 54.0557 44.7854 53.6799 44.4042L52.3135 43.0185C52.0868 42.7885 51.9191 42.5071 51.8248 42.1982L51.2922 40.4534L44.243 12.3721C44.2064 12.2265 44.0755 12.1244 43.9254 12.1244V12.1244C43.7445 12.1244 43.5979 12.271 43.5979 12.4519V43C43.5979 44.1046 42.7025 45 41.5979 45L36.6714 44.9999C36.1774 44.9999 35.7009 44.8171 35.3337 44.4867L34.2342 43.4974C33.8127 43.1181 33.572 42.5777 33.572 42.0106V36.2565L35.8218 3.52166Z" fill="#8B0000"/>
<path d="M35.5723 0.500071H44.681C45.3412 0.500071 45.9238 0.93173 46.1161 1.56333L55.4094 32.0985C55.5138 32.4417 55.8304 32.6762 56.1891 32.6762C56.5477 32.6761 56.8642 32.4416 56.9686 32.0985L66.2619 1.56326C66.4541 0.93166 67.0367 0.5 67.6969 0.5H76.6891C77.5175 0.5 78.1891 1.17157 78.1891 2V40.6684C78.1891 41.4968 77.5175 42.1684 76.6891 42.1684H73.1114C72.283 42.1684 71.6114 41.4968 71.6114 40.6684V10.1281C71.6114 9.66675 71.2374 9.29273 70.776 9.29273C70.4095 9.29273 70.0858 9.53163 69.9778 9.88185L60.3434 41.1106C60.1494 41.7394 59.5681 42.1684 58.91 42.1684H53.4144C52.7554 42.1684 52.1736 41.7383 51.9803 41.1084L47.3707 26.0839L42.4001 9.88299C42.2925 9.53225 41.9686 9.2928 41.6017 9.2928C41.1405 9.2928 40.7666 9.66671 40.7666 10.128V40.6684C40.7666 41.4968 40.095 42.1684 39.2665 42.1684L35.5727 42.1684C34.7443 42.1683 34.0727 41.4968 34.0727 40.6684L34.0723 2.00009C34.0723 1.17166 34.7439 0.500071 35.5723 0.500071Z" fill="#FFCC33" stroke="#8B0000"/>
<path d="M21.917 44.9999C16.7226 44.9999 11.741 42.7522 8.06799 38.7513C4.395 34.7504 2.33154 29.3239 2.33154 23.6658C2.33154 18.0076 4.39501 12.5812 8.06799 8.58023C11.741 4.5793 16.7226 2.3316 21.917 2.3316L24.8315 0H28.2823C28.8559 0 29.4018 0.246226 29.7815 0.676126L30.7425 1.76442C31.0653 2.1299 31.2434 2.6007 31.2434 3.08829V8.03419C31.2434 9.13876 30.348 10.0342 29.2434 10.0342H21.917C18.598 10.0342 15.415 11.4704 13.0681 14.0268C10.7212 16.5832 9.40277 20.0504 9.40277 23.6658C9.40277 27.2811 10.7212 30.7483 13.0681 33.3047C15.415 35.8612 18.598 37.2973 21.917 37.2973L26.5802 34.9647H28.254C28.8211 34.9647 29.3616 35.2055 29.7409 35.6271L30.7303 36.727C31.0606 37.0942 31.2434 37.5706 31.2434 38.0646V42.9999C31.2434 44.1045 30.348 44.9999 29.2434 44.9999H21.917Z" fill="#8B0000"/>
<path d="M19.5855 42.1683C14.5382 42.1683 9.68794 39.9847 6.10477 36.0816C2.52029 32.177 0.5 26.8729 0.5 21.3342C0.5 15.7955 2.52029 10.4913 6.10478 6.58677C9.68795 2.68367 14.5382 0.5 19.5855 0.5H26.9119C27.7403 0.5 28.4119 1.17157 28.4119 2V5.70259C28.4119 6.53102 27.7403 7.20259 26.9119 7.20259H19.5855C16.1194 7.20259 12.8049 8.7028 10.3682 11.357C7.93286 14.0099 6.57123 17.5994 6.57123 21.3342C6.57123 25.0689 7.93286 28.6585 10.3682 31.3113C12.8049 33.9655 16.1194 35.4657 19.5855 35.4657H26.9119C27.7403 35.4657 28.4119 36.1373 28.4119 36.9657V38.4V40.6683C28.4119 41.4968 27.7403 42.1683 26.9119 42.1683H19.5855Z" fill="#FFCC33" stroke="#8B0000"/>
</svg>
